# xmcd
#
# Track frame offsets:
#	150
#	19391
#	33753
#	53650
#	70923
#	84110
#	103867
#	117459
#	135076
#	150340
#	165619
#	178093
#
# Disc length: 2539 seconds
#
# Revision: 7
# Processed by: cddbd v1.5.2PL0 Copyright (c) Steve Scherf et al.
# Submitted via: audiograbber 1.83.01
#
DISCID=8c09e90c
DTITLE=Marty Raybon - When The Sand Runs Out
DYEAR=2007
DGENRE=Country
TTITLE0=Looking For Suzanne
TTITLE1=Shenandoah Saturday Night
TTITLE2=You Ain't Going Nowhere
TTITLE3=When The Sand Runs Out
TTITLE4=You Can't Throw Dirt
TTITLE5=Who Are You
TTITLE6=Come Early Morning
TTITLE7=I Wish I'd Never
TTITLE8=Right Where I Belong
TTITLE9=I Know Love
TTITLE10=We All Came Through The Blood
TTITLE11=Down The Road
EXTD=
EXTT0=
EXTT1=
EXTT2=
EXTT3=
EXTT4=
EXTT5=
EXTT6=
EXTT7=
EXTT8=
EXTT9=
EXTT10=
EXTT11=
PLAYORDER=
